<svg version="1.1" id="Capa_1" xmlns="http://www.w3.org/2000/svg" x="0" y="0" viewBox="0 0 708.66 338.33" style="enable-background:new 0 0 708.66 338.33" xml:space="preserve"><style>.st2{fill:#fff}</style><linearGradient id="SVGID_1_" gradientUnits="userSpaceOnUse" x1="354.331" y1="338.329" x2="354.331" y2=".001"><stop offset="0" style="stop-color:#d59bc4"/><stop offset="1" style="stop-color:#28378e"/></linearGradient><path class="st2" d="M135.95 112.53c-.12.22-.23.44-.35.67l.22.12c.14-.23.3-.47.46-.72l.24-.36-.55.25-.02.04zm-61.29-10.61c-.12.22-.23.44-.35.67l.22.12c.14-.23.3-.47.46-.72l.23-.36-.55.25-.01.04zM52.13 94.5c-.12.22-.23.44-.35.67l.22.12c.14-.23.3-.47.46-.72l.24-.36-.55.25-.02.04zM396.06 6.74c-.43 0-.79.35-.79.79 0 .43.35.79.79.79s.79-.35.79-.79c0-.43-.36-.79-.79-.79zm-22.01 7.62a.95.95 0 1 0 .95.95c0-.53-.42-.95-.95-.95zM358 24.95c-.62 0-1.12.5-1.12 1.12 0 .62.5 1.12 1.12 1.12.62 0 1.12-.5 1.12-1.12 0-.62-.5-1.12-1.12-1.12zm49.64-1.33c-.43 0-.79.35-.79.79 0 .43.35.79.79.79.43 0 .79-.35.79-.79 0-.43-.35-.79-.79-.79zM294.13 11.71a1.451 1.451 0 0 0 0 2.9 1.451 1.451 0 0 0 0-2.9zm3.64 17.54c-.43 0-.79.35-.79.79 0 .43.35.79.79.79.43 0 .79-.35.79-.79 0-.44-.35-.79-.79-.79zM39.82 5.75c-.71 0-1.28.58-1.28 1.28 0 .71.58 1.28 1.28 1.28.71 0 1.28-.58 1.28-1.28 0-.7-.57-1.28-1.28-1.28zm-3.81 14.56c-.43 0-.79.35-.79.79 0 .43.35.79.79.79.43 0 .79-.35.79-.79 0-.43-.35-.79-.79-.79zm68.17-7.77c-.19 0-.34.07-.46.2-.1.11-.15.26-.15.42 0 .31.21.62.61.62.19 0 .34-.07.46-.2.1-.11.15-.26.15-.42 0-.31-.21-.62-.61-.62zm21.84 16.54c-.19 0-.34.07-.46.2-.1.11-.15.26-.15.42 0 .31.21.62.6.62.19 0 .34-.07.46-.2.1-.11.15-.26.15-.42.01-.31-.2-.62-.6-.62zm44.29-5.33c0-.31-.21-.62-.61-.62-.19 0-.34.07-.45.2-.1.11-.15.26-.15.42 0 .31.21.62.61.62.19 0 .34-.07.46-.2.09-.11.14-.26.14-.42zM191.22 41c-.19 0-.34.07-.46.2-.1.11-.15.26-.15.42 0 .31.21.62.61.62.19 0 .34-.07.46-.2.1-.11.15-.26.15-.42-.01-.31-.22-.62-.61-.62zm43.35-21.51c-.19 0-.34.07-.46.2-.1.11-.15.26-.15.42 0 .31.21.62.61.62.19 0 .34-.07.46-.2.1-.11.15-.26.15-.42-.01-.31-.22-.62-.61-.62zM266 69.12c-.19 0-.34.07-.46.2-.1.11-.15.26-.15.42 0 .31.21.62.6.62.19 0 .34-.07.45-.2.1-.11.15-.26.15-.42.02-.3-.19-.62-.59-.62zm58.04-15.5c.1-.11.15-.26.15-.42 0-.31-.21-.62-.61-.62-.19 0-.34.07-.46.2-.1.11-.15.26-.15.42 0 .31.21.62.61.62.19 0 .35-.07.46-.2zm3.64-30.11c.1-.11.15-.26.15-.42 0-.31-.21-.62-.6-.62-.19 0-.34.07-.45.2-.1.11-.15.26-.15.42 0 .31.21.62.61.62.17 0 .33-.07.44-.2zm94.85 45.28c-.19 0-.34.07-.46.2-.1.11-.15.26-.15.42 0 .31.21.62.6.62.19 0 .34-.07.46-.2.1-.11.15-.26.15-.42.01-.3-.2-.62-.6-.62zM381.5 39.67c-.19 0-.34.07-.46.2-.1.11-.15.26-.15.42 0 .31.21.62.61.62.19 0 .34-.07.46-.2.1-.11.15-.26.15-.42-.01-.31-.21-.62-.61-.62zM25.42 76.74c-.19 0-.34.07-.46.2-.1.11-.15.26-.15.42 0 .31.21.62.6.62.19 0 .34-.07.45-.2.1-.11.15-.26.15-.42a.568.568 0 0 0-.59-.62zM20.13 45.3c-.19 0-.34.07-.46.2-.1.11-.15.26-.15.42 0 .31.21.62.61.62.19 0 .34-.07.46-.2.1-.11.15-.26.15-.42-.01-.31-.21-.62-.61-.62zm59.9 13.23c-.19 0-.34.07-.46.2-.1.11-.15.26-.15.42 0 .31.21.62.61.62.19 0 .34-.07.46-.2.1-.11.15-.26.15-.42-.01-.3-.22-.62-.61-.62zm-4.64-39.05c-.19 0-.34.07-.46.2-.1.11-.15.26-.15.42 0 .31.21.62.61.62.19 0 .34-.07.46-.2.1-.11.15-.26.15-.42 0-.3-.21-.62-.61-.62zM46.93 49.6c-.19 0-.34.07-.46.2-.1.11-.15.26-.15.42 0 .31.21.62.61.62.19 0 .34-.07.46-.2.1-.11.15-.26.15-.42 0-.31-.21-.62-.61-.62zm140.98-31.44c-.19 0-.34.07-.46.2-.1.11-.15.26-.15.42 0 .31.21.62.61.62.19 0 .34-.07.46-.2.1-.11.15-.26.15-.42-.01-.31-.22-.62-.61-.62zm16.87 64.86c-.19 0-.34.07-.46.2-.1.11-.15.26-.15.42 0 .31.21.62.61.62.19 0 .34-.07.46-.2.1-.11.15-.26.15-.42 0-.31-.21-.62-.61-.62zm72.15 43.02c-.19 0-.34.07-.46.2-.1.11-.15.26-.15.42 0 .31.21.62.61.62.19 0 .34-.07.45-.2.1-.11.15-.26.15-.42 0-.3-.21-.62-.6-.62zm39.04-20.85c-.19 0-.34.07-.46.2-.1.11-.15.26-.15.42 0 .31.21.62.6.62.19 0 .34-.07.46-.2.1-.11.15-.26.15-.42.01-.3-.2-.62-.6-.62zm-130.38-5.62c-.19 0-.34.07-.46.2-.1.11-.15.26-.15.42 0 .31.21.62.6.62.19 0 .34-.07.46-.2.1-.11.15-.26.15-.42.01-.31-.2-.62-.6-.62zm-156.53 1.98c-.19 0-.34.07-.46.2-.1.11-.15.26-.15.42 0 .31.21.62.61.62.19 0 .34-.07.46-.2.1-.11.15-.26.15-.42 0-.3-.21-.62-.61-.62zm27.23-30.48c0-.56-.37-1.12-1.08-1.12-.33 0-.62.12-.82.35-.17.2-.27.47-.27.76 0 .56.37 1.12 1.09 1.12.33 0 .62-.12.81-.35.17-.2.27-.47.27-.76zm49.55-39.84c-.33 0-.62.12-.81.35-.17.2-.27.47-.27.76 0 .56.37 1.12 1.08 1.12.33 0 .62-.12.82-.35.17-.2.27-.47.27-.76-.01-.55-.38-1.12-1.09-1.12zm76.11 33.43c-.33 0-.62.12-.82.35-.17.2-.27.47-.27.76 0 .56.37 1.12 1.08 1.12.33 0 .62-.12.81-.35.17-.2.27-.47.27-.76.02-.56-.36-1.12-1.07-1.12zm-39.62-50.84c0-.56-.37-1.12-1.08-1.12-.33 0-.62.12-.82.35-.17.2-.27.47-.27.76 0 .56.37 1.12 1.08 1.12.33 0 .62-.12.81-.35.19-.2.28-.47.28-.76zm91.58 43.56c-.33 0-.62.12-.81.35-.17.2-.27.47-.27.76 0 .56.37 1.12 1.08 1.12.33 0 .62-.12.81-.35.17-.2.27-.47.27-.76 0-.56-.37-1.12-1.08-1.12zm21.51-21.51c-.33 0-.62.12-.82.35-.17.2-.27.47-.27.76 0 .56.37 1.12 1.09 1.12.33 0 .62-.12.81-.35.17-.2.27-.47.27-.76 0-.56-.37-1.12-1.08-1.12zm31.43 53.94c-.33 0-.62.12-.82.35-.17.2-.27.47-.27.76 0 .55.37 1.12 1.08 1.12.33 0 .62-.12.81-.35.17-.2.27-.47.27-.76.02-.56-.35-1.12-1.07-1.12zm62.88-6.95c-.33 0-.62.12-.82.35-.17.2-.27.47-.27.76 0 .55.37 1.12 1.08 1.12.33 0 .62-.12.81-.35.17-.2.27-.47.27-.76.01-.56-.36-1.12-1.07-1.12zm46.42-41.57c0-.56-.37-1.12-1.08-1.12-.33 0-.62.12-.82.35-.17.2-.27.47-.27.76 0 .56.37 1.12 1.08 1.12.33 0 .62-.12.81-.35.19-.2.28-.47.28-.76zm-49.4 2.52c-.33 0-.62.12-.81.35-.17.2-.27.47-.27.76 0 .56.37 1.12 1.09 1.12.33 0 .62-.12.82-.35.17-.2.27-.47.27-.76-.01-.56-.39-1.12-1.1-1.12zm-9.6-29.12c-.33 0-.62.12-.82.35-.17.2-.27.47-.27.76 0 .56.37 1.12 1.08 1.12.33 0 .62-.12.81-.35.17-.2.27-.47.27-.76.02-.56-.35-1.12-1.07-1.12zm-137.33-1.66c-.33 0-.62.12-.81.35-.17.2-.27.47-.27.76 0 .56.37 1.12 1.08 1.12.33 0 .62-.12.82-.35.17-.2.27-.47.27-.76-.01-.56-.38-1.12-1.09-1.12zm96.96 51.63c-.33 0-.62.12-.81.35-.17.2-.27.47-.27.76 0 .56.37 1.12 1.08 1.12.33 0 .62-.12.81-.35.17-.2.27-.47.27-.76.01-.56-.37-1.12-1.08-1.12zm-83.06-9.93c-.33 0-.62.12-.81.35-.17.2-.27.47-.27.76 0 .56.37 1.12 1.08 1.12.33 0 .62-.12.82-.35.17-.2.27-.47.27-.76-.01-.56-.38-1.12-1.09-1.12zM66.13 31.56c-.33 0-.62.12-.81.35-.17.2-.27.47-.27.76 0 .56.37 1.12 1.08 1.12.33 0 .62-.12.82-.35.17-.2.27-.47.27-.76-.01-.55-.38-1.12-1.09-1.12zM16.16 63c-.33 0-.62.12-.81.35-.17.2-.27.47-.27.76 0 .56.37 1.12 1.08 1.12.33 0 .62-.12.81-.35.17-.2.27-.47.27-.76 0-.56-.37-1.12-1.08-1.12zm356.73-3.47c-.33 0-.62.12-.81.35-.17.2-.27.47-.27.76 0 .56.37 1.12 1.08 1.12.33 0 .62-.12.82-.35.17-.2.27-.47.27-.76 0-.56-.37-1.12-1.09-1.12zM228.94 37.69c-.33 0-.62.12-.82.35-.17.2-.27.47-.27.76 0 .56.37 1.12 1.09 1.12.33 0 .62-.12.81-.35.17-.2.27-.47.27-.76.01-.56-.37-1.12-1.08-1.12zm25.81 53.11c-.19 0-.34.07-.46.2-.1.11-.15.26-.15.42 0 .31.21.62.61.62.19 0 .34-.07.46-.2.1-.11.15-.26.15-.42 0-.31-.21-.62-.61-.62zm-112.68 66.52c-.19 0-.34.07-.46.2-.1.11-.15.26-.15.42 0 .31.21.62.61.62.19 0 .34-.07.46-.2.1-.11.15-.26.15-.42 0-.31-.21-.62-.61-.62zm-85.87-42.2c-.19 0-.34.07-.46.2-.1.11-.15.26-.15.42 0 .31.21.62.61.62.19 0 .34-.07.46-.2.1-.11.15-.26.15-.42-.01-.31-.21-.62-.61-.62zm287.9 57.58c-.19 0-.34.07-.46.2-.1.11-.15.26-.15.42 0 .31.21.62.61.62.19 0 .34-.07.46-.2.1-.11.15-.26.15-.42 0-.3-.21-.62-.61-.62zm52.12-67.01c-.19 0-.34.07-.46.2-.1.11-.15.26-.15.42 0 .31.21.62.6.62.19 0 .34-.07.46-.2.1-.11.15-.26.15-.42.01-.31-.2-.62-.6-.62zm-93.81 66.52c-.19 0-.34.07-.46.2-.1.11-.15.26-.15.42 0 .31.21.62.61.62.19 0 .34-.07.46-.2.1-.11.15-.26.15-.42-.01-.31-.22-.62-.61-.62zM28.9 164.76c-.19 0-.34.07-.45.2-.1.11-.15.26-.15.42 0 .31.21.62.61.62.19 0 .34-.07.46-.2.1-.11.15-.26.15-.42-.02-.31-.23-.62-.62-.62zm98.78 15.39c-.19 0-.34.07-.46.2-.1.11-.15.26-.15.42 0 .31.21.62.6.62.19 0 .34-.07.46-.2.1-.11.15-.26.15-.42 0-.31-.2-.62-.6-.62zm169.27-31.77c-.19 0-.34.07-.46.2-.1.11-.15.26-.15.42 0 .31.21.62.61.62.19 0 .34-.07.46-.2.1-.11.15-.26.15-.42-.01-.31-.22-.62-.61-.62zm-130.06-14.89c-.19 0-.34.07-.46.2-.1.11-.15.26-.15.42 0 .31.21.62.6.62.19 0 .34-.07.46-.2.1-.11.15-.26.15-.42.01-.31-.2-.62-.6-.62zm248.2 11.91c-.19 0-.34.07-.46.2-.1.11-.15.26-.15.42 0 .31.21.62.61.62.19 0 .34-.07.46-.2.1-.11.15-.26.15-.42-.01-.31-.22-.62-.61-.62zm-216.93-22.5c-.15 0-.29.03-.42.08l.08-.11-.55.25-.02.04c-.12.22-.23.44-.35.67l.19.11c0 .03-.02.06-.02.09 0 .56.37 1.12 1.08 1.12.33 0 .62-.12.82-.35.17-.2.27-.47.27-.76.01-.58-.36-1.14-1.08-1.14zm24.64 63.14c-.19 0-.34.07-.46.2-.1.11-.15.26-.15.42 0 .31.21.62.6.62.19 0 .34-.07.46-.2.1-.11.15-.26.15-.42 0-.31-.2-.62-.6-.62zm-61.22 13.9c-.19 0-.34.07-.46.2-.1.11-.15.26-.15.42 0 .31.21.62.61.62.19 0 .34-.07.46-.2.1-.11.15-.26.15-.42-.01-.31-.21-.62-.61-.62zm82.07 6.78c-.33 0-.62.12-.82.35-.17.2-.27.47-.27.76 0 .56.37 1.12 1.08 1.12.33 0 .62-.12.81-.35.17-.2.27-.47.27-.76.01-.56-.36-1.12-1.07-1.12zm9.93-25.15c-.33 0-.62.12-.81.35-.17.2-.27.47-.27.76 0 .56.37 1.12 1.08 1.12.33 0 .62-.12.81-.35.17-.2.27-.47.27-.76 0-.56-.37-1.12-1.08-1.12zm-42.03 26.14c-.19 0-.34.07-.46.2-.1.11-.15.26-.15.42 0 .31.21.62.61.62.19 0 .34-.07.46-.2.1-.11.15-.26.15-.42-.01-.3-.21-.62-.61-.62zm-56.59 32.1c-.15 0-.29.03-.42.08l.08-.12-.55.25-.02.04c-.12.22-.23.44-.35.67l.19.11c0 .03-.02.06-.02.09 0 .55.37 1.12 1.09 1.12.33 0 .62-.12.82-.35.17-.2.27-.47.27-.76-.01-.56-.38-1.13-1.09-1.13zM90.28 124.22c-.33 0-.62.12-.82.35-.17.2-.27.47-.27.76 0 .55.37 1.12 1.08 1.12.33 0 .62-.12.81-.35.17-.2.27-.47.27-.76.02-.55-.35-1.12-1.07-1.12zm-65.85 0c-.33 0-.62.12-.82.35-.17.2-.27.47-.27.76 0 .55.37 1.12 1.09 1.12.33 0 .62-.12.81-.35.17-.2.27-.47.27-.76 0-.55-.37-1.12-1.08-1.12zm303.79.66c-.33 0-.62.12-.81.35-.17.2-.27.47-.27.76 0 .55.37 1.12 1.08 1.12.33 0 .62-.12.82-.35.17-.2.27-.47.27-.76-.01-.55-.38-1.12-1.09-1.12zm32.76-25.48c-.33 0-.62.12-.81.35-.17.2-.27.47-.27.76 0 .56.37 1.12 1.08 1.12.33 0 .62-.12.82-.35.17-.2.27-.47.27-.76 0-.55-.38-1.12-1.09-1.12zm49.31 23.83c-.33 0-.62.12-.81.35-.17.2-.27.47-.27.76 0 .56.37 1.12 1.08 1.12.33 0 .62-.12.82-.35.17-.2.27-.47.27-.76-.01-.56-.38-1.12-1.09-1.12zm5.05-31.31c0-.55-.37-1.12-1.08-1.12-.33 0-.62.12-.82.35-.17.2-.27.47-.27.76 0 .56.37 1.12 1.08 1.12.33 0 .62-.12.81-.35.19-.2.28-.47.28-.76zm-244.48 76.81c-.33 0-.62.12-.82.35-.17.2-.27.47-.27.76 0 .55.37 1.12 1.08 1.12.33 0 .62-.12.81-.35.17-.2.27-.47.27-.76.02-.56-.35-1.12-1.07-1.12zm-84.38-19.36c-.33 0-.62.12-.81.35-.17.2-.27.47-.27.76 0 .56.37 1.12 1.08 1.12.33 0 .62-.12.82-.35.17-.2.27-.47.27-.76-.01-.55-.38-1.12-1.09-1.12zm237.77-2.48c-.33 0-.62.12-.82.35-.17.2-.27.47-.27.76 0 .56.37 1.12 1.08 1.12.33 0 .62-.12.81-.35.17-.2.27-.47.27-.76.01-.56-.36-1.12-1.07-1.12zM21.61 231.41c-.19 0-.34.07-.46.2-.1.11-.15.26-.15.42 0 .31.21.62.61.62.19 0 .34-.07.46-.2.1-.11.15-.26.15-.42 0-.3-.21-.62-.61-.62zm39.05-20.84c-.19 0-.34.07-.45.2-.1.11-.15.26-.15.42 0 .31.21.62.6.62.19 0 .34-.07.46-.2.1-.11.15-.26.15-.42 0-.31-.21-.62-.61-.62zm28.13 67.51c-.19 0-.34.07-.46.2-.1.11-.15.26-.15.42 0 .31.21.62.61.62.19 0 .34-.07.46-.2.1-.11.15-.26.15-.42-.01-.31-.21-.62-.61-.62zm-41.7-.5c-.19 0-.34.07-.46.2-.1.11-.15.26-.15.42 0 .31.21.62.61.62.19 0 .34-.07.46-.2.1-.11.15-.26.15-.42 0-.31-.21-.62-.61-.62zm-5.46-23.83c-.19 0-.34.07-.46.2-.1.11-.15.26-.15.42 0 .31.21.62.61.62.19 0 .34-.07.46-.2.1-.11.15-.26.15-.42 0-.31-.21-.62-.61-.62zm31.27-23.49c-.33 0-.62.12-.81.35-.17.2-.27.47-.27.76 0 .55.37 1.12 1.08 1.12.33 0 .62-.12.82-.35.17-.2.27-.47.27-.76 0-.56-.37-1.12-1.09-1.12zm32.77-25.48c-.33 0-.62.12-.81.35-.17.2-.27.47-.27.76 0 .56.37 1.12 1.08 1.12.33 0 .62-.12.82-.35.17-.2.27-.47.27-.76-.01-.56-.38-1.12-1.09-1.12zm-36.74 47.48c-.33 0-.62.12-.82.35-.17.2-.27.47-.27.76 0 .56.37 1.12 1.08 1.12.33 0 .62-.12.81-.35.17-.2.27-.47.27-.76.02-.55-.35-1.12-1.07-1.12zm496.43-139.73c-.12.22-.23.44-.35.67l.22.12c.14-.23.3-.47.46-.72l.24-.36-.55.25-.02.04zm-61.3-10.61c-.12.22-.23.44-.35.67l.22.12c.14-.23.3-.47.46-.72l.23-.36-.55.25-.01.04zm-22.52-7.42c-.12.22-.23.44-.35.67l.22.12c.14-.23.3-.47.46-.72l.24-.36-.55.25-.02.04zm200.19-76.25c-.43 0-.79.35-.79.79 0 .43.35.79.79.79.43 0 .79-.35.79-.79 0-.43-.35-.79-.79-.79zm-22 7.62a.95.95 0 1 0 0 1.9.95.95 0 0 0 0-1.9zm-16.05 10.59c-.62 0-1.12.5-1.12 1.12 0 .62.5 1.12 1.12 1.12.62 0 1.12-.5 1.12-1.12-.01-.62-.51-1.12-1.12-1.12zm49.63-1.33c-.43 0-.79.35-.79.79 0 .43.35.79.79.79.44 0 .79-.35.79-.79 0-.43-.35-.79-.79-.79z"/><circle class="st2" cx="579.81" cy="24.67" r="1.45"/><path class="st2" d="M583.45 40.76c-.43 0-.79.35-.79.79 0 .43.35.79.79.79.43 0 .79-.35.79-.79a.798.798 0 0 0-.79-.79zM469.22 5.75c-.71 0-1.28.58-1.28 1.28 0 .71.58 1.28 1.28 1.28.71 0 1.28-.58 1.28-1.28.01-.7-.57-1.28-1.28-1.28zm-3.8 14.56c-.43 0-.79.35-.79.79 0 .43.35.79.79.79.43 0 .79-.35.79-.79 0-.43-.36-.79-.79-.79zm68.17-7.77c-.19 0-.34.07-.46.2-.1.11-.15.26-.15.42 0 .31.21.62.61.62.19 0 .34-.07.46-.2.1-.11.15-.26.15-.42-.01-.31-.21-.62-.61-.62zm21.84 16.54c-.19 0-.34.07-.46.2-.1.11-.15.26-.15.42 0 .31.21.62.6.62.19 0 .34-.07.46-.2.1-.11.15-.26.15-.42.01-.31-.2-.62-.6-.62zm44.29-5.33c0-.31-.21-.62-.61-.62-.19 0-.34.07-.46.2-.1.11-.15.26-.15.42 0 .31.21.62.61.62.19 0 .34-.07.46-.2.09-.11.15-.26.15-.42zM620.62 41c-.19 0-.34.07-.46.2-.1.11-.15.26-.15.42 0 .31.21.62.61.62.19 0 .34-.07.46-.2.1-.11.15-.26.15-.42 0-.31-.21-.62-.61-.62zM520.24 31c-.19 0-.34.07-.46.2-.1.11-.15.26-.15.42 0 .31.21.62.61.62.19 0 .34-.07.46-.2.1-.11.15-.26.15-.42 0-.31-.21-.62-.61-.62zm31.44 49.63c-.19 0-.34.07-.46.2-.1.11-.15.26-.15.42 0 .31.21.62.6.62.19 0 .34-.07.46-.2.1-.11.15-.26.15-.42 0-.3-.2-.62-.6-.62zm58.03-15.5c.1-.11.15-.26.15-.42 0-.31-.21-.62-.61-.62-.19 0-.34.07-.46.2-.1.11-.15.26-.15.42 0 .31.21.62.61.62.2 0 .35-.07.46-.2zm3.65-30.11c.1-.11.15-.26.15-.42 0-.31-.21-.62-.6-.62-.19 0-.34.07-.46.2-.1.11-.15.26-.15.42 0 .31.21.62.61.62.18 0 .33-.07.45-.2zm94.85 45.28c-.19 0-.34.07-.46.2-.1.11-.15.26-.15.42 0 .31.21.62.61.62.19 0 .34-.07.46-.2.1-.11.15-.26.15-.42-.01-.3-.22-.62-.61-.62zm-41.04-29.12c-.19 0-.34.07-.46.2-.1.11-.15.26-.15.42 0 .31.21.62.61.62.19 0 .34-.07.46-.2.1-.11.15-.26.15-.42 0-.31-.21-.62-.61-.62zM454.83 76.74c-.19 0-.34.07-.46.2-.1.11-.15.26-.15.42 0 .31.21.62.6.62.19 0 .34-.07.46-.2.1-.11.15-.26.15-.42 0-.31-.2-.62-.6-.62zm-5.3-31.44c-.19 0-.34.07-.46.2-.1.11-.15.26-.15.42 0 .31.21.62.61.62.19 0 .34-.07.45-.2.1-.11.15-.26.15-.42.01-.31-.2-.62-.6-.62zm59.9 13.23c-.19 0-.34.07-.46.2-.1.11-.15.26-.15.42 0 .31.21.62.61.62.19 0 .34-.07.46-.2.1-.11.15-.26.15-.42 0-.3-.21-.62-.61-.62zm-4.63-39.05c-.19 0-.34.07-.46.2-.1.11-.15.26-.15.42 0 .31.21.62.61.62.19 0 .34-.07.46-.2.1-.11.15-.26.15-.42-.01-.3-.21-.62-.61-.62zM476.34 49.6c-.19 0-.34.07-.46.2-.1.11-.15.26-.15.42 0 .31.21.62.61.62.19 0 .34-.07.46-.2.1-.11.15-.26.15-.42-.01-.31-.21-.62-.61-.62zm140.97-31.44c-.19 0-.34.07-.46.2-.1.11-.15.26-.15.42 0 .31.21.62.61.62.19 0 .34-.07.46-.2.1-.11.15-.26.15-.42 0-.31-.21-.62-.61-.62zM490.46 94.53c-.19 0-.34.07-.46.2-.1.11-.15.26-.15.42 0 .31.21.62.61.62.19 0 .34-.07.46-.2.1-.11.15-.26.15-.42-.01-.31-.21-.62-.61-.62zm72.14 43.02c-.19 0-.34.07-.46.2-.1.11-.15.26-.15.42 0 .31.21.62.61.62.19 0 .34-.07.46-.2.1-.11.15-.26.15-.42 0-.3-.21-.62-.61-.62zm39.05-20.85c-.19 0-.34.07-.46.2-.1.11-.15.26-.15.42 0 .31.21.62.6.62.19 0 .34-.07.46-.2.1-.11.15-.26.15-.42 0-.3-.2-.62-.6-.62zM615 99.57c-.19 0-.34.07-.46.2-.1.11-.15.26-.15.42 0 .31.21.62.6.62.19 0 .34-.07.46-.2.1-.11.15-.26.15-.42 0-.31-.21-.62-.6-.62zm-156.53 1.98c-.19 0-.34.07-.46.2-.1.11-.15.26-.15.42 0 .31.21.62.61.62.19 0 .34-.07.46-.2.1-.11.15-.26.15-.42-.01-.3-.21-.62-.61-.62zm27.23-30.48c0-.56-.37-1.12-1.08-1.12-.33 0-.62.12-.82.35-.17.2-.27.47-.27.76 0 .56.37 1.12 1.09 1.12.33 0 .62-.12.81-.35.17-.2.27-.47.27-.76zm49.54-39.84c-.33 0-.62.12-.81.35-.17.2-.27.47-.27.76 0 .56.37 1.12 1.08 1.12.33 0 .62-.12.82-.35.17-.2.27-.47.27-.76 0-.55-.37-1.12-1.09-1.12zm76.12 33.43c-.33 0-.62.12-.82.35-.17.2-.27.47-.27.76 0 .56.37 1.12 1.08 1.12.33 0 .62-.12.81-.35.17-.2.27-.47.27-.76.01-.56-.36-1.12-1.07-1.12zm-39.62-50.84c0-.56-.37-1.12-1.09-1.12-.33 0-.62.12-.82.35-.17.2-.27.47-.27.76 0 .56.37 1.12 1.08 1.12.33 0 .62-.12.81-.35.19-.2.29-.47.29-.76zm-52.16 55.07c-.33 0-.62.12-.81.35-.17.2-.27.47-.27.76 0 .56.37 1.12 1.09 1.12.33 0 .62-.12.81-.35.17-.2.27-.47.27-.76-.01-.56-.38-1.12-1.09-1.12zm21.51-21.51c-.33 0-.62.12-.82.35-.17.2-.27.47-.27.76 0 .56.37 1.12 1.08 1.12.33 0 .62-.12.81-.35.17-.2.27-.47.27-.76.01-.56-.36-1.12-1.07-1.12zm31.44 53.94c-.33 0-.62.12-.82.35-.17.2-.27.47-.27.76 0 .55.37 1.12 1.08 1.12.33 0 .62-.12.81-.35.17-.2.27-.47.27-.76.01-.56-.36-1.12-1.07-1.12zm62.87-6.95c-.33 0-.62.12-.82.35-.17.2-.27.47-.27.76 0 .55.37 1.12 1.09 1.12.33 0 .62-.12.81-.35.17-.2.27-.47.27-.76.01-.56-.36-1.12-1.08-1.12zm46.43-41.57c0-.56-.37-1.12-1.09-1.12-.33 0-.62.12-.81.35-.17.2-.27.47-.27.76 0 .56.37 1.12 1.08 1.12.33 0 .62-.12.81-.35.18-.2.28-.47.28-.76zm-49.41 2.52c-.33 0-.62.12-.81.35-.17.2-.27.47-.27.76 0 .56.37 1.12 1.09 1.12.33 0 .62-.12.82-.35.17-.2.27-.47.27-.76-.01-.56-.38-1.12-1.1-1.12zm-9.59-29.12c-.33 0-.62.12-.82.35-.17.2-.27.47-.27.76 0 .56.37 1.12 1.09 1.12.33 0 .62-.12.81-.35.17-.2.27-.47.27-.76 0-.56-.37-1.12-1.08-1.12zm-137.34-1.66c-.33 0-.62.12-.81.35-.17.2-.27.47-.27.76 0 .56.37 1.12 1.08 1.12.33 0 .62-.12.82-.35.17-.2.27-.47.27-.76 0-.56-.37-1.12-1.09-1.12zm96.97 51.63c-.33 0-.62.12-.81.35-.17.2-.27.47-.27.76 0 .56.37 1.12 1.08 1.12.33 0 .62-.12.81-.35.17-.2.27-.47.27-.76 0-.56-.37-1.12-1.08-1.12zm-83.07-9.93c-.33 0-.62.12-.81.35-.17.2-.27.47-.27.76 0 .56.37 1.12 1.09 1.12.33 0 .62-.12.82-.35.17-.2.27-.47.27-.76-.01-.56-.38-1.12-1.1-1.12zm-3.86-34.68c-.33 0-.62.12-.81.35-.17.2-.27.47-.27.76 0 .56.37 1.12 1.08 1.12.33 0 .62-.12.82-.35.17-.2.27-.47.27-.76 0-.55-.37-1.12-1.09-1.12zM445.56 63c-.33 0-.62.12-.81.35-.17.2-.27.47-.27.76 0 .56.37 1.12 1.08 1.12.33 0 .62-.12.81-.35.17-.2.27-.47.27-.76.01-.56-.37-1.12-1.08-1.12zm213.01 8.04c-.33 0-.62.12-.81.35-.17.2-.27.47-.27.76 0 .56.37 1.12 1.08 1.12.33 0 .62-.12.82-.35.17-.2.27-.47.27-.76-.01-.56-.38-1.12-1.09-1.12zM514.62 49.2c-.33 0-.62.12-.82.35-.17.2-.27.47-.27.76 0 .56.37 1.12 1.08 1.12.33 0 .62-.12.81-.35.17-.2.27-.47.27-.76.01-.56-.36-1.12-1.07-1.12zm25.81 53.11c-.19 0-.34.07-.46.2-.1.11-.15.26-.15.42 0 .31.21.62.61.62.19 0 .34-.07.46-.2.1-.11.15-.26.15-.42-.01-.31-.21-.62-.61-.62zm31.05 55.01c-.19 0-.34.07-.46.2-.1.11-.15.26-.15.42 0 .31.21.62.61.62.19 0 .34-.07.46-.2.1-.11.15-.26.15-.42-.01-.31-.21-.62-.61-.62zm-85.88-42.2c-.19 0-.34.07-.46.2-.1.11-.15.26-.15.42 0 .31.21.62.61.62.19 0 .34-.07.46-.2.1-.11.15-.26.15-.42 0-.31-.21-.62-.61-.62zm144.18 69.09c-.19 0-.34.07-.46.2-.1.11-.15.26-.15.42 0 .31.21.62.61.62.19 0 .34-.07.46-.2.1-.11.15-.26.15-.42-.01-.3-.22-.62-.61-.62zm52.12-67.01c-.19 0-.34.07-.46.2-.1.11-.15.26-.15.42 0 .31.21.62.61.62.19 0 .34-.07.46-.2.1-.11.15-.26.15-.42-.01-.31-.22-.62-.61-.62zm-93.82 66.52c-.19 0-.34.07-.46.2-.1.11-.15.26-.15.42 0 .31.21.62.61.62.19 0 .34-.07.46-.2.1-.11.15-.26.15-.42 0-.31-.21-.62-.61-.62zM458.3 164.76c-.19 0-.34.07-.46.2-.1.11-.15.26-.15.42 0 .31.21.62.61.62.19 0 .34-.07.46-.2.1-.11.15-.26.15-.42 0-.31-.21-.62-.61-.62zm98.78 15.39c-.19 0-.34.07-.46.2-.1.11-.15.26-.15.42 0 .31.21.62.6.62.19 0 .34-.07.46-.2.1-.11.15-.26.15-.42.01-.31-.2-.62-.6-.62zm25.54-20.26c-.19 0-.34.07-.46.2-.1.11-.15.26-.15.42 0 .31.21.62.61.62.19 0 .34-.07.46-.2.1-.11.15-.26.15-.42 0-.31-.21-.62-.61-.62zm13.68-26.4c-.19 0-.34.07-.46.2-.1.11-.15.26-.15.42 0 .31.21.62.6.62.19 0 .34-.07.46-.2.1-.11.15-.26.15-.42 0-.31-.2-.62-.6-.62zm104.46 23.42c-.19 0-.34.07-.46.2-.1.11-.15.26-.15.42 0 .31.21.62.61.62.19 0 .34-.07.46-.2.1-.11.15-.26.15-.42 0-.3-.21-.62-.61-.62zm-216.92-22.5c-.15 0-.29.03-.42.08l.08-.12-.55.25-.02.04c-.12.22-.23.44-.35.67l.19.11c0 .03-.02.06-.02.09 0 .56.37 1.12 1.08 1.12.33 0 .62-.12.82-.35.17-.2.27-.47.27-.77 0-.56-.37-1.12-1.08-1.12zm24.63 63.14c-.19 0-.34.07-.45.2-.1.11-.15.26-.15.42 0 .31.21.62.6.62.19 0 .34-.07.46-.2.1-.11.15-.26.15-.42 0-.31-.21-.62-.61-.62zm82.51 2.39c-.19 0-.34.07-.46.2-.1.11-.15.26-.15.42 0 .31.21.62.61.62.19 0 .34-.07.46-.2.1-.11.15-.26.15-.42 0-.31-.21-.62-.61-.62zm-61.66 18.29c-.33 0-.62.12-.82.35-.17.2-.27.47-.27.76 0 .56.37 1.12 1.08 1.12.33 0 .62-.12.81-.36.17-.2.27-.47.27-.76.02-.55-.36-1.11-1.07-1.11zm9.93-25.15c-.33 0-.62.12-.81.35-.17.2-.27.47-.27.76 0 .56.37 1.12 1.09 1.12.33 0 .62-.12.81-.35.17-.2.27-.47.27-.76-.01-.56-.38-1.12-1.09-1.12zm-42.03 26.14c-.19 0-.34.07-.46.2-.1.11-.15.26-.15.42 0 .31.21.62.61.62.19 0 .34-.07.45-.2.1-.11.15-.26.15-.42.01-.3-.2-.62-.6-.62zm87.15 20.59c-.15 0-.29.03-.42.08l.08-.12-.55.25-.02.04c-.12.22-.23.44-.35.67l.19.11c0 .03-.02.06-.02.09 0 .55.37 1.12 1.08 1.12.33 0 .62-.12.82-.35.17-.2.27-.47.27-.76 0-.56-.37-1.13-1.08-1.13zm-64.68-115.59c-.33 0-.62.12-.82.35-.17.2-.27.47-.27.76 0 .55.37 1.12 1.09 1.12.33 0 .62-.12.81-.35.17-.2.27-.47.27-.76.01-.55-.37-1.12-1.08-1.12zm-65.85 0c-.33 0-.62.12-.82.35-.17.2-.27.47-.27.76 0 .55.37 1.12 1.08 1.12.33 0 .62-.12.81-.35.17-.2.27-.47.27-.76.01-.55-.36-1.12-1.07-1.12zm160.05 12.18c-.33 0-.62.12-.81.35-.17.2-.27.47-.27.76 0 .55.37 1.12 1.08 1.12.33 0 .62-.12.82-.35.17-.2.27-.47.27-.76 0-.56-.37-1.12-1.09-1.12zm32.76-25.49c-.33 0-.62.12-.81.35-.17.2-.27.47-.27.77 0 .55.37 1.12 1.09 1.12.33 0 .62-.12.82-.35.17-.2.27-.47.27-.76-.01-.56-.38-1.13-1.1-1.13zm49.31 23.83c-.33 0-.62.12-.81.36-.18.2-.27.47-.27.76 0 .55.37 1.12 1.09 1.12.33 0 .62-.12.81-.35.17-.2.27-.47.27-.76 0-.57-.37-1.13-1.09-1.13zm5.06-31.31c0-.55-.37-1.12-1.09-1.12-.33 0-.62.12-.81.35-.17.2-.27.47-.27.76 0 .56.37 1.12 1.08 1.12.33 0 .62-.12.81-.36.18-.19.28-.46.28-.75zm-100.75 65.3c-.33 0-.62.12-.82.35-.17.2-.27.47-.27.76 0 .55.37 1.12 1.09 1.12.33 0 .62-.12.81-.35.17-.2.27-.47.27-.76.01-.56-.37-1.12-1.08-1.12zm-84.39-19.36c-.33 0-.62.12-.81.35-.17.2-.27.47-.27.76 0 .56.37 1.12 1.08 1.12.33 0 .62-.12.82-.35.17-.2.27-.47.27-.76 0-.55-.37-1.12-1.09-1.12zm94.04 9.03c-.33 0-.62.12-.82.35-.17.2-.27.47-.27.76 0 .56.37 1.12 1.08 1.12.33 0 .62-.12.81-.35.17-.2.27-.47.27-.77.02-.55-.36-1.11-1.07-1.11zm-158.9 73.01c-.19 0-.34.07-.46.2-.1.11-.15.26-.15.42 0 .31.21.62.61.62.19 0 .34-.07.45-.2.1-.11.15-.26.15-.42 0-.3-.2-.62-.6-.62zm39.05-20.84c-.19 0-.34.07-.46.2-.1.11-.15.26-.15.42 0 .31.21.62.6.62.19 0 .34-.07.46-.2.1-.11.15-.26.15-.42 0-.31-.21-.62-.6-.62zm28.13 67.51c-.19 0-.34.07-.46.2-.1.11-.15.26-.15.42 0 .31.21.62.61.62.19 0 .34-.07.46-.2.1-.11.15-.26.15-.42-.01-.31-.22-.62-.61-.62zm-41.7-.5c-.19 0-.34.07-.46.2-.1.11-.15.26-.15.42 0 .31.21.62.61.62.19 0 .34-.07.46-.2.1-.11.15-.26.15-.42-.01-.31-.21-.62-.61-.62zm-5.46-23.83c-.19 0-.34.07-.46.2-.1.11-.15.26-.15.42 0 .31.21.62.61.62.19 0 .34-.07.46-.2.1-.11.15-.26.15-.42-.01-.31-.21-.62-.61-.62zm31.27-23.49c-.33 0-.62.12-.81.35-.17.2-.27.47-.27.76 0 .55.37 1.12 1.08 1.12.33 0 .62-.12.82-.35.17-.2.27-.47.27-.76 0-.56-.38-1.12-1.09-1.12zm32.76-25.48c-.33 0-.62.12-.81.35-.17.2-.27.47-.27.76 0 .56.37 1.12 1.08 1.12.33 0 .62-.12.82-.35.17-.2.27-.47.27-.76 0-.56-.37-1.12-1.09-1.12zm-36.73 47.48c-.33 0-.62.12-.82.35-.17.2-.27.47-.27.76 0 .56.37 1.12 1.08 1.12.33 0 .62-.12.81-.35.17-.2.27-.47.27-.76.01-.55-.36-1.12-1.07-1.12z"/></svg>